<?xml version="1.0" encoding="utf-8"?>
<svg version="1.1" xmlns:xlink="http://www.w3.org/1999/xlink" width="8px" height="8px" xmlns="http://www.w3.org/2000/svg">
  <g transform="matrix(1 0 0 1 -21 -406 )">
    <path d="M 25 406  C 27.24 406  29 407.76  29 410  C 29 412.24  27.24 414  25 414  C 22.76 414  21 412.24  21 410  C 21 407.76  22.76 406  25 406  Z " fill-rule="nonzero" fill="#7f7f7f" stroke="none" />
    <path d="M 25 406.5  C 26.96 406.5  28.5 408.04  28.5 410  C 28.5 411.96  26.96 413.5  25 413.5  C 23.04 413.5  21.5 411.96  21.5 410  C 21.5 408.04  23.04 406.5  25 406.5  Z " stroke-width="1" stroke="#7f7f7f" fill="none" />
  </g>
</svg>