<?xml version="1.0" encoding="utf-8"?>
<svg version="1.1" xmlns:xlink="http://www.w3.org/1999/xlink" width="10px" height="10px" xmlns="http://www.w3.org/2000/svg">
  <g transform="matrix(1 0 0 1 -183 -364 )">
    <path d="M 188 364  C 190.8 364  193 366.2  193 369  C 193 371.8  190.8 374  188 374  C 185.2 374  183 371.8  183 369  C 183 366.2  185.2 364  188 364  Z " fill-rule="nonzero" fill="#000000" stroke="none" />
    <path d="M 188 364.5  C 190.52 364.5  192.5 366.48  192.5 369  C 192.5 371.52  190.52 373.5  188 373.5  C 185.48 373.5  183.5 371.52  183.5 369  C 183.5 366.48  185.48 364.5  188 364.5  Z " stroke-width="1" stroke="#797979" fill="none" />
  </g>
</svg>